<mxfile host="app.diagrams.net" agent="Mozilla/5.0 (X11; Linux x86_64) AppleWebKit/537.36 (KHTML, like Gecko) Chrome/124.0.0.0 YaBrowser/24.6.0.0 Safari/537.36" version="24.7.16">
  <diagram name="Page-1" id="-H_mtQnk-PTXWXPvYvuk">
    <mxGraphModel dx="1798" dy="1009" grid="1" gridSize="10" guides="1" tooltips="1" connect="1" arrows="1" fold="1" page="1" pageScale="1" pageWidth="1169" pageHeight="827" math="0" shadow="0">
      <root>
        <mxCell id="0" />
        <mxCell id="1" parent="0" />
        <mxCell id="r_yZ_V9eWdyuLxxwoUkd-31" value="" style="ellipse;whiteSpace=wrap;html=1;" parent="1" vertex="1">
          <mxGeometry x="710" y="831.5" width="270" height="119" as="geometry" />
        </mxCell>
        <mxCell id="r_yZ_V9eWdyuLxxwoUkd-29" value="" style="ellipse;whiteSpace=wrap;html=1;" parent="1" vertex="1">
          <mxGeometry x="710" y="721.5" width="270" height="119" as="geometry" />
        </mxCell>
        <mxCell id="zA23MoTUsTF4_91t8viU-2" value="MongoDB" style="shape=cylinder3;whiteSpace=wrap;html=1;boundedLbl=1;backgroundOutline=1;size=15;" parent="1" vertex="1">
          <mxGeometry x="560" y="280" width="60" height="80" as="geometry" />
        </mxCell>
        <mxCell id="zA23MoTUsTF4_91t8viU-3" value="pymongo-api" style="rounded=1;whiteSpace=wrap;html=1;" parent="1" vertex="1">
          <mxGeometry x="360" y="290" width="120" height="60" as="geometry" />
        </mxCell>
        <mxCell id="zA23MoTUsTF4_91t8viU-4" style="edgeStyle=orthogonalEdgeStyle;rounded=0;orthogonalLoop=1;jettySize=auto;html=1;exitX=1;exitY=0.5;exitDx=0;exitDy=0;entryX=0;entryY=0.5;entryDx=0;entryDy=0;entryPerimeter=0;" parent="1" source="zA23MoTUsTF4_91t8viU-3" target="zA23MoTUsTF4_91t8viU-2" edge="1">
          <mxGeometry relative="1" as="geometry" />
        </mxCell>
        <mxCell id="r_yZ_V9eWdyuLxxwoUkd-1" value="Базовая схема" style="text;html=1;align=center;verticalAlign=middle;whiteSpace=wrap;rounded=0;" parent="1" vertex="1">
          <mxGeometry x="270" y="230" width="60" height="30" as="geometry" />
        </mxCell>
        <mxCell id="r_yZ_V9eWdyuLxxwoUkd-2" value="Схема с шардированием" style="text;html=1;align=center;verticalAlign=middle;whiteSpace=wrap;rounded=0;" parent="1" vertex="1">
          <mxGeometry x="270" y="399" width="60" height="30" as="geometry" />
        </mxCell>
        <mxCell id="r_yZ_V9eWdyuLxxwoUkd-3" value="confSrv" style="shape=cylinder3;whiteSpace=wrap;html=1;boundedLbl=1;backgroundOutline=1;size=15;" parent="1" vertex="1">
          <mxGeometry x="560" y="610" width="60" height="80" as="geometry" />
        </mxCell>
        <mxCell id="r_yZ_V9eWdyuLxxwoUkd-4" value="pymongo-api" style="rounded=1;whiteSpace=wrap;html=1;" parent="1" vertex="1">
          <mxGeometry x="360" y="500" width="120" height="60" as="geometry" />
        </mxCell>
        <mxCell id="r_yZ_V9eWdyuLxxwoUkd-5" style="edgeStyle=orthogonalEdgeStyle;rounded=0;orthogonalLoop=1;jettySize=auto;html=1;exitX=1;exitY=0.5;exitDx=0;exitDy=0;entryX=0;entryY=0.5;entryDx=0;entryDy=0;entryPerimeter=0;" parent="1" source="r_yZ_V9eWdyuLxxwoUkd-4" target="r_yZ_V9eWdyuLxxwoUkd-6" edge="1">
          <mxGeometry relative="1" as="geometry" />
        </mxCell>
        <mxCell id="r_yZ_V9eWdyuLxxwoUkd-10" style="edgeStyle=orthogonalEdgeStyle;rounded=0;orthogonalLoop=1;jettySize=auto;html=1;exitX=1;exitY=0.5;exitDx=0;exitDy=0;exitPerimeter=0;entryX=0;entryY=0.5;entryDx=0;entryDy=0;entryPerimeter=0;" parent="1" source="r_yZ_V9eWdyuLxxwoUkd-6" target="r_yZ_V9eWdyuLxxwoUkd-8" edge="1">
          <mxGeometry relative="1" as="geometry">
            <mxPoint x="650" y="610" as="targetPoint" />
          </mxGeometry>
        </mxCell>
        <mxCell id="r_yZ_V9eWdyuLxxwoUkd-6" value="mongos" style="shape=cylinder3;whiteSpace=wrap;html=1;boundedLbl=1;backgroundOutline=1;size=15;" parent="1" vertex="1">
          <mxGeometry x="560" y="490" width="60" height="80" as="geometry" />
        </mxCell>
        <mxCell id="r_yZ_V9eWdyuLxxwoUkd-7" value="shard1-0" style="shape=cylinder3;whiteSpace=wrap;html=1;boundedLbl=1;backgroundOutline=1;size=15;" parent="1" vertex="1">
          <mxGeometry x="740" y="440" width="60" height="80" as="geometry" />
        </mxCell>
        <mxCell id="r_yZ_V9eWdyuLxxwoUkd-8" value="shard2-0" style="shape=cylinder3;whiteSpace=wrap;html=1;boundedLbl=1;backgroundOutline=1;size=15;" parent="1" vertex="1">
          <mxGeometry x="740" y="550" width="60" height="80" as="geometry" />
        </mxCell>
        <mxCell id="r_yZ_V9eWdyuLxxwoUkd-9" style="edgeStyle=orthogonalEdgeStyle;rounded=0;orthogonalLoop=1;jettySize=auto;html=1;exitX=0.5;exitY=1;exitDx=0;exitDy=0;exitPerimeter=0;entryX=0.5;entryY=0;entryDx=0;entryDy=0;entryPerimeter=0;" parent="1" source="r_yZ_V9eWdyuLxxwoUkd-6" target="r_yZ_V9eWdyuLxxwoUkd-3" edge="1">
          <mxGeometry relative="1" as="geometry" />
        </mxCell>
        <mxCell id="r_yZ_V9eWdyuLxxwoUkd-11" style="edgeStyle=orthogonalEdgeStyle;rounded=0;orthogonalLoop=1;jettySize=auto;html=1;exitX=1;exitY=0.5;exitDx=0;exitDy=0;exitPerimeter=0;entryX=0;entryY=0.5;entryDx=0;entryDy=0;entryPerimeter=0;" parent="1" source="r_yZ_V9eWdyuLxxwoUkd-6" target="r_yZ_V9eWdyuLxxwoUkd-7" edge="1">
          <mxGeometry relative="1" as="geometry" />
        </mxCell>
        <mxCell id="r_yZ_V9eWdyuLxxwoUkd-12" value="Схема с репликами" style="text;html=1;align=center;verticalAlign=middle;whiteSpace=wrap;rounded=0;" parent="1" vertex="1">
          <mxGeometry x="270" y="700" width="60" height="30" as="geometry" />
        </mxCell>
        <mxCell id="r_yZ_V9eWdyuLxxwoUkd-13" value="confSrv" style="shape=cylinder3;whiteSpace=wrap;html=1;boundedLbl=1;backgroundOutline=1;size=15;" parent="1" vertex="1">
          <mxGeometry x="560" y="911" width="60" height="80" as="geometry" />
        </mxCell>
        <mxCell id="r_yZ_V9eWdyuLxxwoUkd-14" value="pymongo-api" style="rounded=1;whiteSpace=wrap;html=1;" parent="1" vertex="1">
          <mxGeometry x="360" y="801" width="120" height="60" as="geometry" />
        </mxCell>
        <mxCell id="r_yZ_V9eWdyuLxxwoUkd-15" style="edgeStyle=orthogonalEdgeStyle;rounded=0;orthogonalLoop=1;jettySize=auto;html=1;exitX=1;exitY=0.5;exitDx=0;exitDy=0;entryX=0;entryY=0.5;entryDx=0;entryDy=0;entryPerimeter=0;" parent="1" source="r_yZ_V9eWdyuLxxwoUkd-14" target="r_yZ_V9eWdyuLxxwoUkd-17" edge="1">
          <mxGeometry relative="1" as="geometry" />
        </mxCell>
        <mxCell id="r_yZ_V9eWdyuLxxwoUkd-16" style="edgeStyle=orthogonalEdgeStyle;rounded=0;orthogonalLoop=1;jettySize=auto;html=1;exitX=1;exitY=0.5;exitDx=0;exitDy=0;exitPerimeter=0;entryX=0;entryY=0.5;entryDx=0;entryDy=0;entryPerimeter=0;" parent="1" source="r_yZ_V9eWdyuLxxwoUkd-17" target="r_yZ_V9eWdyuLxxwoUkd-19" edge="1">
          <mxGeometry relative="1" as="geometry">
            <mxPoint x="650" y="911" as="targetPoint" />
          </mxGeometry>
        </mxCell>
        <mxCell id="r_yZ_V9eWdyuLxxwoUkd-17" value="mongos" style="shape=cylinder3;whiteSpace=wrap;html=1;boundedLbl=1;backgroundOutline=1;size=15;" parent="1" vertex="1">
          <mxGeometry x="560" y="791" width="60" height="80" as="geometry" />
        </mxCell>
        <mxCell id="r_yZ_V9eWdyuLxxwoUkd-18" value="shard1-0" style="shape=cylinder3;whiteSpace=wrap;html=1;boundedLbl=1;backgroundOutline=1;size=15;" parent="1" vertex="1">
          <mxGeometry x="740" y="741" width="60" height="80" as="geometry" />
        </mxCell>
        <mxCell id="r_yZ_V9eWdyuLxxwoUkd-19" value="shard2-0" style="shape=cylinder3;whiteSpace=wrap;html=1;boundedLbl=1;backgroundOutline=1;size=15;" parent="1" vertex="1">
          <mxGeometry x="740" y="851" width="60" height="80" as="geometry" />
        </mxCell>
        <mxCell id="r_yZ_V9eWdyuLxxwoUkd-20" style="edgeStyle=orthogonalEdgeStyle;rounded=0;orthogonalLoop=1;jettySize=auto;html=1;exitX=0.5;exitY=1;exitDx=0;exitDy=0;exitPerimeter=0;entryX=0.5;entryY=0;entryDx=0;entryDy=0;entryPerimeter=0;" parent="1" source="r_yZ_V9eWdyuLxxwoUkd-17" target="r_yZ_V9eWdyuLxxwoUkd-13" edge="1">
          <mxGeometry relative="1" as="geometry" />
        </mxCell>
        <mxCell id="r_yZ_V9eWdyuLxxwoUkd-21" style="edgeStyle=orthogonalEdgeStyle;rounded=0;orthogonalLoop=1;jettySize=auto;html=1;exitX=1;exitY=0.5;exitDx=0;exitDy=0;exitPerimeter=0;entryX=0;entryY=0.5;entryDx=0;entryDy=0;entryPerimeter=0;" parent="1" source="r_yZ_V9eWdyuLxxwoUkd-17" target="r_yZ_V9eWdyuLxxwoUkd-18" edge="1">
          <mxGeometry relative="1" as="geometry" />
        </mxCell>
        <mxCell id="r_yZ_V9eWdyuLxxwoUkd-22" value="shard1-1" style="shape=cylinder3;whiteSpace=wrap;html=1;boundedLbl=1;backgroundOutline=1;size=15;" parent="1" vertex="1">
          <mxGeometry x="820" y="741" width="60" height="80" as="geometry" />
        </mxCell>
        <mxCell id="r_yZ_V9eWdyuLxxwoUkd-23" value="shard1-2" style="shape=cylinder3;whiteSpace=wrap;html=1;boundedLbl=1;backgroundOutline=1;size=15;" parent="1" vertex="1">
          <mxGeometry x="900" y="741" width="60" height="80" as="geometry" />
        </mxCell>
        <mxCell id="r_yZ_V9eWdyuLxxwoUkd-27" value="shard2-1" style="shape=cylinder3;whiteSpace=wrap;html=1;boundedLbl=1;backgroundOutline=1;size=15;" parent="1" vertex="1">
          <mxGeometry x="820" y="851" width="60" height="80" as="geometry" />
        </mxCell>
        <mxCell id="r_yZ_V9eWdyuLxxwoUkd-28" value="shard2-2" style="shape=cylinder3;whiteSpace=wrap;html=1;boundedLbl=1;backgroundOutline=1;size=15;" parent="1" vertex="1">
          <mxGeometry x="900" y="851" width="60" height="80" as="geometry" />
        </mxCell>
        <mxCell id="r_yZ_V9eWdyuLxxwoUkd-32" value="rs1" style="text;html=1;align=center;verticalAlign=middle;whiteSpace=wrap;rounded=0;" parent="1" vertex="1">
          <mxGeometry x="930" y="711" width="60" height="30" as="geometry" />
        </mxCell>
        <mxCell id="r_yZ_V9eWdyuLxxwoUkd-33" value="rs2" style="text;html=1;align=center;verticalAlign=middle;whiteSpace=wrap;rounded=0;" parent="1" vertex="1">
          <mxGeometry x="940" y="831.5" width="60" height="30" as="geometry" />
        </mxCell>
        <mxCell id="oE8brjBy_7uUkw9B_99h-1" value="" style="ellipse;whiteSpace=wrap;html=1;" parent="1" vertex="1">
          <mxGeometry x="700" y="1191.5" width="270" height="119" as="geometry" />
        </mxCell>
        <mxCell id="oE8brjBy_7uUkw9B_99h-2" value="" style="ellipse;whiteSpace=wrap;html=1;" parent="1" vertex="1">
          <mxGeometry x="700" y="1081.5" width="270" height="119" as="geometry" />
        </mxCell>
        <mxCell id="oE8brjBy_7uUkw9B_99h-3" value="Схема с кешированием" style="text;html=1;align=center;verticalAlign=middle;whiteSpace=wrap;rounded=0;" parent="1" vertex="1">
          <mxGeometry x="260" y="1060" width="60" height="30" as="geometry" />
        </mxCell>
        <mxCell id="oE8brjBy_7uUkw9B_99h-4" value="confSrv" style="shape=cylinder3;whiteSpace=wrap;html=1;boundedLbl=1;backgroundOutline=1;size=15;" parent="1" vertex="1">
          <mxGeometry x="550" y="1271" width="60" height="80" as="geometry" />
        </mxCell>
        <mxCell id="oE8brjBy_7uUkw9B_99h-20" style="edgeStyle=orthogonalEdgeStyle;rounded=0;orthogonalLoop=1;jettySize=auto;html=1;exitX=0.5;exitY=1;exitDx=0;exitDy=0;entryX=0.5;entryY=0;entryDx=0;entryDy=0;" parent="1" source="oE8brjBy_7uUkw9B_99h-5" target="oE8brjBy_7uUkw9B_99h-19" edge="1">
          <mxGeometry relative="1" as="geometry" />
        </mxCell>
        <mxCell id="oE8brjBy_7uUkw9B_99h-5" value="pymongo-api" style="rounded=1;whiteSpace=wrap;html=1;" parent="1" vertex="1">
          <mxGeometry x="322" y="1161.13" width="120" height="60" as="geometry" />
        </mxCell>
        <mxCell id="oE8brjBy_7uUkw9B_99h-6" style="edgeStyle=orthogonalEdgeStyle;rounded=0;orthogonalLoop=1;jettySize=auto;html=1;exitX=1;exitY=0.5;exitDx=0;exitDy=0;entryX=0;entryY=0.5;entryDx=0;entryDy=0;entryPerimeter=0;" parent="1" source="oE8brjBy_7uUkw9B_99h-5" target="oE8brjBy_7uUkw9B_99h-8" edge="1">
          <mxGeometry relative="1" as="geometry" />
        </mxCell>
        <mxCell id="oE8brjBy_7uUkw9B_99h-7" style="edgeStyle=orthogonalEdgeStyle;rounded=0;orthogonalLoop=1;jettySize=auto;html=1;exitX=1;exitY=0.5;exitDx=0;exitDy=0;exitPerimeter=0;entryX=0;entryY=0.5;entryDx=0;entryDy=0;entryPerimeter=0;" parent="1" source="oE8brjBy_7uUkw9B_99h-8" target="oE8brjBy_7uUkw9B_99h-10" edge="1">
          <mxGeometry relative="1" as="geometry">
            <mxPoint x="640" y="1271" as="targetPoint" />
          </mxGeometry>
        </mxCell>
        <mxCell id="oE8brjBy_7uUkw9B_99h-8" value="mongos" style="shape=cylinder3;whiteSpace=wrap;html=1;boundedLbl=1;backgroundOutline=1;size=15;" parent="1" vertex="1">
          <mxGeometry x="550" y="1151" width="60" height="80" as="geometry" />
        </mxCell>
        <mxCell id="oE8brjBy_7uUkw9B_99h-9" value="shard1-0" style="shape=cylinder3;whiteSpace=wrap;html=1;boundedLbl=1;backgroundOutline=1;size=15;" parent="1" vertex="1">
          <mxGeometry x="730" y="1101" width="60" height="80" as="geometry" />
        </mxCell>
        <mxCell id="oE8brjBy_7uUkw9B_99h-10" value="shard2-0" style="shape=cylinder3;whiteSpace=wrap;html=1;boundedLbl=1;backgroundOutline=1;size=15;" parent="1" vertex="1">
          <mxGeometry x="730" y="1211" width="60" height="80" as="geometry" />
        </mxCell>
        <mxCell id="oE8brjBy_7uUkw9B_99h-11" style="edgeStyle=orthogonalEdgeStyle;rounded=0;orthogonalLoop=1;jettySize=auto;html=1;exitX=0.5;exitY=1;exitDx=0;exitDy=0;exitPerimeter=0;entryX=0.5;entryY=0;entryDx=0;entryDy=0;entryPerimeter=0;" parent="1" source="oE8brjBy_7uUkw9B_99h-8" target="oE8brjBy_7uUkw9B_99h-4" edge="1">
          <mxGeometry relative="1" as="geometry" />
        </mxCell>
        <mxCell id="oE8brjBy_7uUkw9B_99h-12" style="edgeStyle=orthogonalEdgeStyle;rounded=0;orthogonalLoop=1;jettySize=auto;html=1;exitX=1;exitY=0.5;exitDx=0;exitDy=0;exitPerimeter=0;entryX=0;entryY=0.5;entryDx=0;entryDy=0;entryPerimeter=0;" parent="1" source="oE8brjBy_7uUkw9B_99h-8" target="oE8brjBy_7uUkw9B_99h-9" edge="1">
          <mxGeometry relative="1" as="geometry" />
        </mxCell>
        <mxCell id="oE8brjBy_7uUkw9B_99h-13" value="shard1-1" style="shape=cylinder3;whiteSpace=wrap;html=1;boundedLbl=1;backgroundOutline=1;size=15;" parent="1" vertex="1">
          <mxGeometry x="810" y="1101" width="60" height="80" as="geometry" />
        </mxCell>
        <mxCell id="oE8brjBy_7uUkw9B_99h-14" value="shard1-2" style="shape=cylinder3;whiteSpace=wrap;html=1;boundedLbl=1;backgroundOutline=1;size=15;" parent="1" vertex="1">
          <mxGeometry x="890" y="1101" width="60" height="80" as="geometry" />
        </mxCell>
        <mxCell id="oE8brjBy_7uUkw9B_99h-15" value="shard2-1" style="shape=cylinder3;whiteSpace=wrap;html=1;boundedLbl=1;backgroundOutline=1;size=15;" parent="1" vertex="1">
          <mxGeometry x="810" y="1211" width="60" height="80" as="geometry" />
        </mxCell>
        <mxCell id="oE8brjBy_7uUkw9B_99h-16" value="shard2-2" style="shape=cylinder3;whiteSpace=wrap;html=1;boundedLbl=1;backgroundOutline=1;size=15;" parent="1" vertex="1">
          <mxGeometry x="890" y="1211" width="60" height="80" as="geometry" />
        </mxCell>
        <mxCell id="oE8brjBy_7uUkw9B_99h-17" value="rs1" style="text;html=1;align=center;verticalAlign=middle;whiteSpace=wrap;rounded=0;" parent="1" vertex="1">
          <mxGeometry x="920" y="1071" width="60" height="30" as="geometry" />
        </mxCell>
        <mxCell id="oE8brjBy_7uUkw9B_99h-18" value="rs2" style="text;html=1;align=center;verticalAlign=middle;whiteSpace=wrap;rounded=0;" parent="1" vertex="1">
          <mxGeometry x="930" y="1191.5" width="60" height="30" as="geometry" />
        </mxCell>
        <mxCell id="oE8brjBy_7uUkw9B_99h-19" value="redis1" style="rounded=1;whiteSpace=wrap;html=1;" parent="1" vertex="1">
          <mxGeometry x="322" y="1271" width="120" height="60" as="geometry" />
        </mxCell>
        <mxCell id="0L6gMxb9l9bQKvD0s6zK-1" value="" style="ellipse;whiteSpace=wrap;html=1;" vertex="1" parent="1">
          <mxGeometry x="680" y="1720.5" width="270" height="119" as="geometry" />
        </mxCell>
        <mxCell id="0L6gMxb9l9bQKvD0s6zK-2" value="" style="ellipse;whiteSpace=wrap;html=1;" vertex="1" parent="1">
          <mxGeometry x="680" y="1610.5" width="270" height="119" as="geometry" />
        </mxCell>
        <mxCell id="0L6gMxb9l9bQKvD0s6zK-3" value="Api Gateway" style="text;html=1;align=center;verticalAlign=middle;whiteSpace=wrap;rounded=0;" vertex="1" parent="1">
          <mxGeometry x="240" y="1440" width="60" height="30" as="geometry" />
        </mxCell>
        <mxCell id="0L6gMxb9l9bQKvD0s6zK-4" value="confSrv" style="shape=cylinder3;whiteSpace=wrap;html=1;boundedLbl=1;backgroundOutline=1;size=15;" vertex="1" parent="1">
          <mxGeometry x="530" y="1800" width="60" height="80" as="geometry" />
        </mxCell>
        <mxCell id="0L6gMxb9l9bQKvD0s6zK-5" style="edgeStyle=orthogonalEdgeStyle;rounded=0;orthogonalLoop=1;jettySize=auto;html=1;exitX=0.5;exitY=1;exitDx=0;exitDy=0;entryX=0.5;entryY=0;entryDx=0;entryDy=0;" edge="1" parent="1" source="0L6gMxb9l9bQKvD0s6zK-6" target="0L6gMxb9l9bQKvD0s6zK-20">
          <mxGeometry relative="1" as="geometry" />
        </mxCell>
        <mxCell id="0L6gMxb9l9bQKvD0s6zK-31" style="edgeStyle=orthogonalEdgeStyle;rounded=0;orthogonalLoop=1;jettySize=auto;html=1;exitX=0.5;exitY=0;exitDx=0;exitDy=0;entryX=0.5;entryY=1;entryDx=0;entryDy=0;" edge="1" parent="1" source="0L6gMxb9l9bQKvD0s6zK-6" target="0L6gMxb9l9bQKvD0s6zK-26">
          <mxGeometry relative="1" as="geometry">
            <Array as="points">
              <mxPoint x="360" y="1670" />
              <mxPoint x="525" y="1670" />
            </Array>
          </mxGeometry>
        </mxCell>
        <mxCell id="0L6gMxb9l9bQKvD0s6zK-34" style="edgeStyle=orthogonalEdgeStyle;rounded=0;orthogonalLoop=1;jettySize=auto;html=1;exitX=0.75;exitY=0;exitDx=0;exitDy=0;entryX=0.5;entryY=1;entryDx=0;entryDy=0;" edge="1" parent="1" source="0L6gMxb9l9bQKvD0s6zK-6" target="0L6gMxb9l9bQKvD0s6zK-26">
          <mxGeometry relative="1" as="geometry">
            <Array as="points">
              <mxPoint x="390" y="1670" />
              <mxPoint x="525" y="1670" />
            </Array>
          </mxGeometry>
        </mxCell>
        <mxCell id="0L6gMxb9l9bQKvD0s6zK-6" value="pymongo-api-n" style="rounded=1;whiteSpace=wrap;html=1;" vertex="1" parent="1">
          <mxGeometry x="300" y="1690" width="120" height="60" as="geometry" />
        </mxCell>
        <mxCell id="0L6gMxb9l9bQKvD0s6zK-7" style="edgeStyle=orthogonalEdgeStyle;rounded=0;orthogonalLoop=1;jettySize=auto;html=1;exitX=1;exitY=0.5;exitDx=0;exitDy=0;entryX=0;entryY=0.5;entryDx=0;entryDy=0;entryPerimeter=0;" edge="1" parent="1" source="0L6gMxb9l9bQKvD0s6zK-6" target="0L6gMxb9l9bQKvD0s6zK-9">
          <mxGeometry relative="1" as="geometry" />
        </mxCell>
        <mxCell id="0L6gMxb9l9bQKvD0s6zK-8" style="edgeStyle=orthogonalEdgeStyle;rounded=0;orthogonalLoop=1;jettySize=auto;html=1;exitX=1;exitY=0.5;exitDx=0;exitDy=0;exitPerimeter=0;entryX=0;entryY=0.5;entryDx=0;entryDy=0;entryPerimeter=0;" edge="1" parent="1" source="0L6gMxb9l9bQKvD0s6zK-9" target="0L6gMxb9l9bQKvD0s6zK-11">
          <mxGeometry relative="1" as="geometry">
            <mxPoint x="620" y="1800" as="targetPoint" />
          </mxGeometry>
        </mxCell>
        <mxCell id="0L6gMxb9l9bQKvD0s6zK-9" value="mongos" style="shape=cylinder3;whiteSpace=wrap;html=1;boundedLbl=1;backgroundOutline=1;size=15;" vertex="1" parent="1">
          <mxGeometry x="530" y="1680" width="60" height="80" as="geometry" />
        </mxCell>
        <mxCell id="0L6gMxb9l9bQKvD0s6zK-10" value="shard1-0" style="shape=cylinder3;whiteSpace=wrap;html=1;boundedLbl=1;backgroundOutline=1;size=15;" vertex="1" parent="1">
          <mxGeometry x="710" y="1630" width="60" height="80" as="geometry" />
        </mxCell>
        <mxCell id="0L6gMxb9l9bQKvD0s6zK-11" value="shard2-0" style="shape=cylinder3;whiteSpace=wrap;html=1;boundedLbl=1;backgroundOutline=1;size=15;" vertex="1" parent="1">
          <mxGeometry x="710" y="1740" width="60" height="80" as="geometry" />
        </mxCell>
        <mxCell id="0L6gMxb9l9bQKvD0s6zK-12" style="edgeStyle=orthogonalEdgeStyle;rounded=0;orthogonalLoop=1;jettySize=auto;html=1;exitX=0.5;exitY=1;exitDx=0;exitDy=0;exitPerimeter=0;entryX=0.5;entryY=0;entryDx=0;entryDy=0;entryPerimeter=0;" edge="1" parent="1" source="0L6gMxb9l9bQKvD0s6zK-9" target="0L6gMxb9l9bQKvD0s6zK-4">
          <mxGeometry relative="1" as="geometry" />
        </mxCell>
        <mxCell id="0L6gMxb9l9bQKvD0s6zK-13" style="edgeStyle=orthogonalEdgeStyle;rounded=0;orthogonalLoop=1;jettySize=auto;html=1;exitX=1;exitY=0.5;exitDx=0;exitDy=0;exitPerimeter=0;entryX=0;entryY=0.5;entryDx=0;entryDy=0;entryPerimeter=0;" edge="1" parent="1" source="0L6gMxb9l9bQKvD0s6zK-9" target="0L6gMxb9l9bQKvD0s6zK-10">
          <mxGeometry relative="1" as="geometry" />
        </mxCell>
        <mxCell id="0L6gMxb9l9bQKvD0s6zK-14" value="shard1-1" style="shape=cylinder3;whiteSpace=wrap;html=1;boundedLbl=1;backgroundOutline=1;size=15;" vertex="1" parent="1">
          <mxGeometry x="790" y="1630" width="60" height="80" as="geometry" />
        </mxCell>
        <mxCell id="0L6gMxb9l9bQKvD0s6zK-15" value="shard1-2" style="shape=cylinder3;whiteSpace=wrap;html=1;boundedLbl=1;backgroundOutline=1;size=15;" vertex="1" parent="1">
          <mxGeometry x="870" y="1630" width="60" height="80" as="geometry" />
        </mxCell>
        <mxCell id="0L6gMxb9l9bQKvD0s6zK-16" value="shard2-1" style="shape=cylinder3;whiteSpace=wrap;html=1;boundedLbl=1;backgroundOutline=1;size=15;" vertex="1" parent="1">
          <mxGeometry x="790" y="1740" width="60" height="80" as="geometry" />
        </mxCell>
        <mxCell id="0L6gMxb9l9bQKvD0s6zK-17" value="shard2-2" style="shape=cylinder3;whiteSpace=wrap;html=1;boundedLbl=1;backgroundOutline=1;size=15;" vertex="1" parent="1">
          <mxGeometry x="870" y="1740" width="60" height="80" as="geometry" />
        </mxCell>
        <mxCell id="0L6gMxb9l9bQKvD0s6zK-18" value="rs1" style="text;html=1;align=center;verticalAlign=middle;whiteSpace=wrap;rounded=0;" vertex="1" parent="1">
          <mxGeometry x="900" y="1600" width="60" height="30" as="geometry" />
        </mxCell>
        <mxCell id="0L6gMxb9l9bQKvD0s6zK-19" value="rs2" style="text;html=1;align=center;verticalAlign=middle;whiteSpace=wrap;rounded=0;" vertex="1" parent="1">
          <mxGeometry x="910" y="1720.5" width="60" height="30" as="geometry" />
        </mxCell>
        <mxCell id="0L6gMxb9l9bQKvD0s6zK-20" value="redisn" style="rounded=1;whiteSpace=wrap;html=1;" vertex="1" parent="1">
          <mxGeometry x="300" y="1790" width="120" height="60" as="geometry" />
        </mxCell>
        <mxCell id="0L6gMxb9l9bQKvD0s6zK-21" style="edgeStyle=orthogonalEdgeStyle;rounded=0;orthogonalLoop=1;jettySize=auto;html=1;exitX=0.5;exitY=1;exitDx=0;exitDy=0;entryX=0.5;entryY=0;entryDx=0;entryDy=0;" edge="1" parent="1" source="0L6gMxb9l9bQKvD0s6zK-22" target="0L6gMxb9l9bQKvD0s6zK-23">
          <mxGeometry relative="1" as="geometry" />
        </mxCell>
        <mxCell id="0L6gMxb9l9bQKvD0s6zK-29" style="edgeStyle=orthogonalEdgeStyle;rounded=0;orthogonalLoop=1;jettySize=auto;html=1;exitX=1;exitY=0.5;exitDx=0;exitDy=0;entryX=0.5;entryY=1;entryDx=0;entryDy=0;" edge="1" parent="1" source="0L6gMxb9l9bQKvD0s6zK-22" target="0L6gMxb9l9bQKvD0s6zK-26">
          <mxGeometry relative="1" as="geometry">
            <Array as="points">
              <mxPoint x="270" y="1720" />
              <mxPoint x="270" y="1670" />
              <mxPoint x="525" y="1670" />
            </Array>
          </mxGeometry>
        </mxCell>
        <mxCell id="0L6gMxb9l9bQKvD0s6zK-22" value="pymongo-api-1" style="rounded=1;whiteSpace=wrap;html=1;" vertex="1" parent="1">
          <mxGeometry x="130" y="1690" width="120" height="60" as="geometry" />
        </mxCell>
        <mxCell id="0L6gMxb9l9bQKvD0s6zK-23" value="redis1" style="rounded=1;whiteSpace=wrap;html=1;" vertex="1" parent="1">
          <mxGeometry x="130" y="1790" width="120" height="60" as="geometry" />
        </mxCell>
        <mxCell id="0L6gMxb9l9bQKvD0s6zK-24" style="edgeStyle=orthogonalEdgeStyle;rounded=0;orthogonalLoop=1;jettySize=auto;html=1;exitX=0;exitY=0.5;exitDx=0;exitDy=0;entryX=0;entryY=0.5;entryDx=0;entryDy=0;entryPerimeter=0;" edge="1" parent="1" source="0L6gMxb9l9bQKvD0s6zK-22" target="0L6gMxb9l9bQKvD0s6zK-9">
          <mxGeometry relative="1" as="geometry">
            <Array as="points">
              <mxPoint x="70" y="1720" />
              <mxPoint x="70" y="1920" />
              <mxPoint x="500" y="1920" />
              <mxPoint x="500" y="1720" />
            </Array>
          </mxGeometry>
        </mxCell>
        <mxCell id="0L6gMxb9l9bQKvD0s6zK-27" style="edgeStyle=orthogonalEdgeStyle;rounded=0;orthogonalLoop=1;jettySize=auto;html=1;exitX=0.5;exitY=1;exitDx=0;exitDy=0;" edge="1" parent="1" source="0L6gMxb9l9bQKvD0s6zK-25">
          <mxGeometry relative="1" as="geometry">
            <mxPoint x="190" y="1690" as="targetPoint" />
          </mxGeometry>
        </mxCell>
        <mxCell id="0L6gMxb9l9bQKvD0s6zK-32" style="edgeStyle=orthogonalEdgeStyle;rounded=0;orthogonalLoop=1;jettySize=auto;html=1;exitX=0.5;exitY=1;exitDx=0;exitDy=0;" edge="1" parent="1" source="0L6gMxb9l9bQKvD0s6zK-25" target="0L6gMxb9l9bQKvD0s6zK-6">
          <mxGeometry relative="1" as="geometry" />
        </mxCell>
        <mxCell id="0L6gMxb9l9bQKvD0s6zK-66" style="edgeStyle=orthogonalEdgeStyle;rounded=0;orthogonalLoop=1;jettySize=auto;html=1;exitX=1;exitY=0.5;exitDx=0;exitDy=0;entryX=0;entryY=0.5;entryDx=0;entryDy=0;" edge="1" parent="1" source="0L6gMxb9l9bQKvD0s6zK-25" target="0L6gMxb9l9bQKvD0s6zK-26">
          <mxGeometry relative="1" as="geometry" />
        </mxCell>
        <mxCell id="0L6gMxb9l9bQKvD0s6zK-25" value="Api Gateway" style="rounded=1;whiteSpace=wrap;html=1;" vertex="1" parent="1">
          <mxGeometry x="230" y="1540" width="120" height="60" as="geometry" />
        </mxCell>
        <mxCell id="0L6gMxb9l9bQKvD0s6zK-26" value="Consul" style="rounded=1;whiteSpace=wrap;html=1;" vertex="1" parent="1">
          <mxGeometry x="465" y="1540" width="120" height="60" as="geometry" />
        </mxCell>
        <mxCell id="0L6gMxb9l9bQKvD0s6zK-35" value="" style="ellipse;whiteSpace=wrap;html=1;" vertex="1" parent="1">
          <mxGeometry x="685" y="2250.5" width="270" height="119" as="geometry" />
        </mxCell>
        <mxCell id="0L6gMxb9l9bQKvD0s6zK-36" value="" style="ellipse;whiteSpace=wrap;html=1;" vertex="1" parent="1">
          <mxGeometry x="685" y="2140.5" width="270" height="119" as="geometry" />
        </mxCell>
        <mxCell id="0L6gMxb9l9bQKvD0s6zK-37" value="CDN" style="text;html=1;align=center;verticalAlign=middle;whiteSpace=wrap;rounded=0;" vertex="1" parent="1">
          <mxGeometry x="245" y="1970" width="60" height="30" as="geometry" />
        </mxCell>
        <mxCell id="0L6gMxb9l9bQKvD0s6zK-38" value="confSrv" style="shape=cylinder3;whiteSpace=wrap;html=1;boundedLbl=1;backgroundOutline=1;size=15;" vertex="1" parent="1">
          <mxGeometry x="535" y="2330" width="60" height="80" as="geometry" />
        </mxCell>
        <mxCell id="0L6gMxb9l9bQKvD0s6zK-39" style="edgeStyle=orthogonalEdgeStyle;rounded=0;orthogonalLoop=1;jettySize=auto;html=1;exitX=0.5;exitY=1;exitDx=0;exitDy=0;entryX=0.5;entryY=0;entryDx=0;entryDy=0;" edge="1" parent="1" source="0L6gMxb9l9bQKvD0s6zK-42" target="0L6gMxb9l9bQKvD0s6zK-56">
          <mxGeometry relative="1" as="geometry" />
        </mxCell>
        <mxCell id="0L6gMxb9l9bQKvD0s6zK-40" style="edgeStyle=orthogonalEdgeStyle;rounded=0;orthogonalLoop=1;jettySize=auto;html=1;exitX=0.5;exitY=0;exitDx=0;exitDy=0;entryX=0.5;entryY=1;entryDx=0;entryDy=0;" edge="1" parent="1" source="0L6gMxb9l9bQKvD0s6zK-42" target="0L6gMxb9l9bQKvD0s6zK-65">
          <mxGeometry relative="1" as="geometry">
            <Array as="points">
              <mxPoint x="365" y="2200" />
              <mxPoint x="530" y="2200" />
            </Array>
          </mxGeometry>
        </mxCell>
        <mxCell id="0L6gMxb9l9bQKvD0s6zK-41" style="edgeStyle=orthogonalEdgeStyle;rounded=0;orthogonalLoop=1;jettySize=auto;html=1;exitX=0.75;exitY=0;exitDx=0;exitDy=0;entryX=0.5;entryY=1;entryDx=0;entryDy=0;" edge="1" parent="1" source="0L6gMxb9l9bQKvD0s6zK-42" target="0L6gMxb9l9bQKvD0s6zK-65">
          <mxGeometry relative="1" as="geometry">
            <Array as="points">
              <mxPoint x="395" y="2200" />
              <mxPoint x="530" y="2200" />
            </Array>
          </mxGeometry>
        </mxCell>
        <mxCell id="0L6gMxb9l9bQKvD0s6zK-42" value="pymongo-api-n" style="rounded=1;whiteSpace=wrap;html=1;" vertex="1" parent="1">
          <mxGeometry x="305" y="2220" width="120" height="60" as="geometry" />
        </mxCell>
        <mxCell id="0L6gMxb9l9bQKvD0s6zK-43" style="edgeStyle=orthogonalEdgeStyle;rounded=0;orthogonalLoop=1;jettySize=auto;html=1;exitX=1;exitY=0.5;exitDx=0;exitDy=0;entryX=0;entryY=0.5;entryDx=0;entryDy=0;entryPerimeter=0;" edge="1" parent="1" source="0L6gMxb9l9bQKvD0s6zK-42" target="0L6gMxb9l9bQKvD0s6zK-45">
          <mxGeometry relative="1" as="geometry" />
        </mxCell>
        <mxCell id="0L6gMxb9l9bQKvD0s6zK-44" style="edgeStyle=orthogonalEdgeStyle;rounded=0;orthogonalLoop=1;jettySize=auto;html=1;exitX=1;exitY=0.5;exitDx=0;exitDy=0;exitPerimeter=0;entryX=0;entryY=0.5;entryDx=0;entryDy=0;entryPerimeter=0;" edge="1" parent="1" source="0L6gMxb9l9bQKvD0s6zK-45" target="0L6gMxb9l9bQKvD0s6zK-47">
          <mxGeometry relative="1" as="geometry">
            <mxPoint x="625" y="2330" as="targetPoint" />
          </mxGeometry>
        </mxCell>
        <mxCell id="0L6gMxb9l9bQKvD0s6zK-45" value="mongos" style="shape=cylinder3;whiteSpace=wrap;html=1;boundedLbl=1;backgroundOutline=1;size=15;" vertex="1" parent="1">
          <mxGeometry x="535" y="2210" width="60" height="80" as="geometry" />
        </mxCell>
        <mxCell id="0L6gMxb9l9bQKvD0s6zK-46" value="shard1-0" style="shape=cylinder3;whiteSpace=wrap;html=1;boundedLbl=1;backgroundOutline=1;size=15;" vertex="1" parent="1">
          <mxGeometry x="715" y="2160" width="60" height="80" as="geometry" />
        </mxCell>
        <mxCell id="0L6gMxb9l9bQKvD0s6zK-47" value="shard2-0" style="shape=cylinder3;whiteSpace=wrap;html=1;boundedLbl=1;backgroundOutline=1;size=15;" vertex="1" parent="1">
          <mxGeometry x="715" y="2270" width="60" height="80" as="geometry" />
        </mxCell>
        <mxCell id="0L6gMxb9l9bQKvD0s6zK-48" style="edgeStyle=orthogonalEdgeStyle;rounded=0;orthogonalLoop=1;jettySize=auto;html=1;exitX=0.5;exitY=1;exitDx=0;exitDy=0;exitPerimeter=0;entryX=0.5;entryY=0;entryDx=0;entryDy=0;entryPerimeter=0;" edge="1" parent="1" source="0L6gMxb9l9bQKvD0s6zK-45" target="0L6gMxb9l9bQKvD0s6zK-38">
          <mxGeometry relative="1" as="geometry" />
        </mxCell>
        <mxCell id="0L6gMxb9l9bQKvD0s6zK-49" style="edgeStyle=orthogonalEdgeStyle;rounded=0;orthogonalLoop=1;jettySize=auto;html=1;exitX=1;exitY=0.5;exitDx=0;exitDy=0;exitPerimeter=0;entryX=0;entryY=0.5;entryDx=0;entryDy=0;entryPerimeter=0;" edge="1" parent="1" source="0L6gMxb9l9bQKvD0s6zK-45" target="0L6gMxb9l9bQKvD0s6zK-46">
          <mxGeometry relative="1" as="geometry" />
        </mxCell>
        <mxCell id="0L6gMxb9l9bQKvD0s6zK-50" value="shard1-1" style="shape=cylinder3;whiteSpace=wrap;html=1;boundedLbl=1;backgroundOutline=1;size=15;" vertex="1" parent="1">
          <mxGeometry x="795" y="2160" width="60" height="80" as="geometry" />
        </mxCell>
        <mxCell id="0L6gMxb9l9bQKvD0s6zK-51" value="shard1-2" style="shape=cylinder3;whiteSpace=wrap;html=1;boundedLbl=1;backgroundOutline=1;size=15;" vertex="1" parent="1">
          <mxGeometry x="875" y="2160" width="60" height="80" as="geometry" />
        </mxCell>
        <mxCell id="0L6gMxb9l9bQKvD0s6zK-52" value="shard2-1" style="shape=cylinder3;whiteSpace=wrap;html=1;boundedLbl=1;backgroundOutline=1;size=15;" vertex="1" parent="1">
          <mxGeometry x="795" y="2270" width="60" height="80" as="geometry" />
        </mxCell>
        <mxCell id="0L6gMxb9l9bQKvD0s6zK-53" value="shard2-2" style="shape=cylinder3;whiteSpace=wrap;html=1;boundedLbl=1;backgroundOutline=1;size=15;" vertex="1" parent="1">
          <mxGeometry x="875" y="2270" width="60" height="80" as="geometry" />
        </mxCell>
        <mxCell id="0L6gMxb9l9bQKvD0s6zK-54" value="rs1" style="text;html=1;align=center;verticalAlign=middle;whiteSpace=wrap;rounded=0;" vertex="1" parent="1">
          <mxGeometry x="905" y="2130" width="60" height="30" as="geometry" />
        </mxCell>
        <mxCell id="0L6gMxb9l9bQKvD0s6zK-55" value="rs2" style="text;html=1;align=center;verticalAlign=middle;whiteSpace=wrap;rounded=0;" vertex="1" parent="1">
          <mxGeometry x="915" y="2250.5" width="60" height="30" as="geometry" />
        </mxCell>
        <mxCell id="0L6gMxb9l9bQKvD0s6zK-56" value="redisn" style="rounded=1;whiteSpace=wrap;html=1;" vertex="1" parent="1">
          <mxGeometry x="305" y="2320" width="120" height="60" as="geometry" />
        </mxCell>
        <mxCell id="0L6gMxb9l9bQKvD0s6zK-57" style="edgeStyle=orthogonalEdgeStyle;rounded=0;orthogonalLoop=1;jettySize=auto;html=1;exitX=0.5;exitY=1;exitDx=0;exitDy=0;entryX=0.5;entryY=0;entryDx=0;entryDy=0;" edge="1" parent="1" source="0L6gMxb9l9bQKvD0s6zK-59" target="0L6gMxb9l9bQKvD0s6zK-60">
          <mxGeometry relative="1" as="geometry" />
        </mxCell>
        <mxCell id="0L6gMxb9l9bQKvD0s6zK-58" style="edgeStyle=orthogonalEdgeStyle;rounded=0;orthogonalLoop=1;jettySize=auto;html=1;exitX=1;exitY=0.5;exitDx=0;exitDy=0;entryX=0.5;entryY=1;entryDx=0;entryDy=0;" edge="1" parent="1" source="0L6gMxb9l9bQKvD0s6zK-59" target="0L6gMxb9l9bQKvD0s6zK-65">
          <mxGeometry relative="1" as="geometry">
            <Array as="points">
              <mxPoint x="275" y="2250" />
              <mxPoint x="275" y="2200" />
              <mxPoint x="530" y="2200" />
            </Array>
          </mxGeometry>
        </mxCell>
        <mxCell id="0L6gMxb9l9bQKvD0s6zK-59" value="pymongo-api-1" style="rounded=1;whiteSpace=wrap;html=1;" vertex="1" parent="1">
          <mxGeometry x="135" y="2220" width="120" height="60" as="geometry" />
        </mxCell>
        <mxCell id="0L6gMxb9l9bQKvD0s6zK-60" value="redis1" style="rounded=1;whiteSpace=wrap;html=1;" vertex="1" parent="1">
          <mxGeometry x="135" y="2320" width="120" height="60" as="geometry" />
        </mxCell>
        <mxCell id="0L6gMxb9l9bQKvD0s6zK-61" style="edgeStyle=orthogonalEdgeStyle;rounded=0;orthogonalLoop=1;jettySize=auto;html=1;exitX=0;exitY=0.5;exitDx=0;exitDy=0;entryX=0;entryY=0.5;entryDx=0;entryDy=0;entryPerimeter=0;" edge="1" parent="1" source="0L6gMxb9l9bQKvD0s6zK-59" target="0L6gMxb9l9bQKvD0s6zK-45">
          <mxGeometry relative="1" as="geometry">
            <Array as="points">
              <mxPoint x="75" y="2250" />
              <mxPoint x="75" y="2450" />
              <mxPoint x="505" y="2450" />
              <mxPoint x="505" y="2250" />
            </Array>
          </mxGeometry>
        </mxCell>
        <mxCell id="0L6gMxb9l9bQKvD0s6zK-62" style="edgeStyle=orthogonalEdgeStyle;rounded=0;orthogonalLoop=1;jettySize=auto;html=1;exitX=0.5;exitY=1;exitDx=0;exitDy=0;" edge="1" parent="1" source="0L6gMxb9l9bQKvD0s6zK-64">
          <mxGeometry relative="1" as="geometry">
            <mxPoint x="195" y="2220" as="targetPoint" />
          </mxGeometry>
        </mxCell>
        <mxCell id="0L6gMxb9l9bQKvD0s6zK-63" style="edgeStyle=orthogonalEdgeStyle;rounded=0;orthogonalLoop=1;jettySize=auto;html=1;exitX=0.5;exitY=1;exitDx=0;exitDy=0;" edge="1" parent="1" source="0L6gMxb9l9bQKvD0s6zK-64" target="0L6gMxb9l9bQKvD0s6zK-42">
          <mxGeometry relative="1" as="geometry" />
        </mxCell>
        <mxCell id="0L6gMxb9l9bQKvD0s6zK-67" style="edgeStyle=orthogonalEdgeStyle;rounded=0;orthogonalLoop=1;jettySize=auto;html=1;exitX=1;exitY=0.5;exitDx=0;exitDy=0;entryX=0;entryY=0.5;entryDx=0;entryDy=0;" edge="1" parent="1" source="0L6gMxb9l9bQKvD0s6zK-64" target="0L6gMxb9l9bQKvD0s6zK-65">
          <mxGeometry relative="1" as="geometry" />
        </mxCell>
        <mxCell id="0L6gMxb9l9bQKvD0s6zK-64" value="Api Gateway" style="rounded=1;whiteSpace=wrap;html=1;" vertex="1" parent="1">
          <mxGeometry x="235" y="2070" width="120" height="60" as="geometry" />
        </mxCell>
        <mxCell id="0L6gMxb9l9bQKvD0s6zK-65" value="Consul" style="rounded=1;whiteSpace=wrap;html=1;" vertex="1" parent="1">
          <mxGeometry x="470" y="2070" width="120" height="60" as="geometry" />
        </mxCell>
        <mxCell id="0L6gMxb9l9bQKvD0s6zK-75" style="edgeStyle=orthogonalEdgeStyle;rounded=0;orthogonalLoop=1;jettySize=auto;html=1;exitX=1;exitY=0.5;exitDx=0;exitDy=0;entryX=0;entryY=0.5;entryDx=0;entryDy=0;" edge="1" parent="1" source="0L6gMxb9l9bQKvD0s6zK-68" target="0L6gMxb9l9bQKvD0s6zK-64">
          <mxGeometry relative="1" as="geometry" />
        </mxCell>
        <mxCell id="0L6gMxb9l9bQKvD0s6zK-68" value="CDN" style="rounded=1;whiteSpace=wrap;html=1;" vertex="1" parent="1">
          <mxGeometry x="70" y="2070" width="120" height="60" as="geometry" />
        </mxCell>
        <mxCell id="0L6gMxb9l9bQKvD0s6zK-72" value="" style="endArrow=classic;html=1;rounded=0;entryX=0.5;entryY=0;entryDx=0;entryDy=0;" edge="1" parent="1" target="0L6gMxb9l9bQKvD0s6zK-64">
          <mxGeometry width="50" height="50" relative="1" as="geometry">
            <mxPoint x="295" y="2020" as="sourcePoint" />
            <mxPoint x="330" y="1990" as="targetPoint" />
          </mxGeometry>
        </mxCell>
        <mxCell id="0L6gMxb9l9bQKvD0s6zK-74" value="" style="endArrow=classic;html=1;rounded=0;entryX=0.5;entryY=0;entryDx=0;entryDy=0;" edge="1" parent="1">
          <mxGeometry width="50" height="50" relative="1" as="geometry">
            <mxPoint x="130" y="2020" as="sourcePoint" />
            <mxPoint x="130" y="2070" as="targetPoint" />
          </mxGeometry>
        </mxCell>
      </root>
    </mxGraphModel>
  </diagram>
</mxfile>
